<mxfile host="Electron" modified="2023-06-12T14:06:11.829Z" agent="Mozilla/5.0 (Windows NT 10.0; Win64; x64) AppleWebKit/537.36 (KHTML, like Gecko) draw.io/21.2.8 Chrome/112.0.5615.165 Electron/24.2.0 Safari/537.36" etag="Mtfw-Fvfx5dLBJctOBUr" version="21.2.8" type="device">
  <diagram name="第 1 页" id="SIXWf4FGTi7ohe0_XzTR">
    <mxGraphModel dx="1534" dy="1199" grid="0" gridSize="10" guides="1" tooltips="1" connect="1" arrows="1" fold="1" page="0" pageScale="1" pageWidth="827" pageHeight="1169" math="0" shadow="0">
      <root>
        <mxCell id="0" />
        <mxCell id="1" parent="0" />
        <mxCell id="KTIaO_VYiiC3L9U0whu2-13" value="(numpy.array)&lt;br&gt;網球" style="edgeStyle=none;curved=1;rounded=0;orthogonalLoop=1;jettySize=auto;html=1;exitX=1;exitY=0.5;exitDx=0;exitDy=0;entryX=0;entryY=0.5;entryDx=0;entryDy=0;fontSize=12;startSize=8;endSize=8;" parent="1" source="KTIaO_VYiiC3L9U0whu2-1" target="KTIaO_VYiiC3L9U0whu2-2" edge="1">
          <mxGeometry x="-0.0101" y="18" relative="1" as="geometry">
            <mxPoint as="offset" />
          </mxGeometry>
        </mxCell>
        <mxCell id="KTIaO_VYiiC3L9U0whu2-1" value="HSV&lt;br&gt;：取前景(網球)" style="rounded=1;whiteSpace=wrap;html=1;fontSize=12;" parent="1" vertex="1">
          <mxGeometry x="-112" y="-95" width="120" height="60" as="geometry" />
        </mxCell>
        <mxCell id="KTIaO_VYiiC3L9U0whu2-40" value="球已知路徑" style="edgeStyle=none;curved=1;rounded=0;orthogonalLoop=1;jettySize=auto;html=1;exitX=1;exitY=0.5;exitDx=0;exitDy=0;fontSize=12;startSize=8;endSize=8;" parent="1" source="KTIaO_VYiiC3L9U0whu2-2" edge="1">
          <mxGeometry x="1" y="44" relative="1" as="geometry">
            <mxPoint x="528" y="-65" as="targetPoint" />
            <mxPoint x="43" y="40" as="offset" />
          </mxGeometry>
        </mxCell>
        <mxCell id="KTIaO_VYiiC3L9U0whu2-2" value="檢測球座標&lt;br&gt;：紀錄球體像素座標" style="rounded=1;whiteSpace=wrap;html=1;fontSize=12;" parent="1" vertex="1">
          <mxGeometry x="101" y="-95" width="149" height="60" as="geometry" />
        </mxCell>
        <mxCell id="KTIaO_VYiiC3L9U0whu2-3" value="視角轉換&lt;br&gt;：取得真實世界座標" style="rounded=1;whiteSpace=wrap;html=1;fontSize=12;" parent="1" vertex="1">
          <mxGeometry x="-133" y="67.5" width="151" height="60" as="geometry" />
        </mxCell>
        <mxCell id="KTIaO_VYiiC3L9U0whu2-10" value="(uint8)&lt;br&gt;人數" style="edgeStyle=none;curved=1;rounded=0;orthogonalLoop=1;jettySize=auto;html=1;exitX=1;exitY=0.5;exitDx=0;exitDy=0;entryX=0;entryY=0.5;entryDx=0;entryDy=0;fontSize=12;startSize=8;endSize=8;" parent="1" source="KTIaO_VYiiC3L9U0whu2-4" target="KTIaO_VYiiC3L9U0whu2-5" edge="1">
          <mxGeometry x="-0.0617" y="28" relative="1" as="geometry">
            <mxPoint as="offset" />
          </mxGeometry>
        </mxCell>
        <mxCell id="KTIaO_VYiiC3L9U0whu2-4" value="人物辨識&lt;br&gt;：抓人物輪廓、算人數" style="rounded=1;whiteSpace=wrap;html=1;fontSize=12;" parent="1" vertex="1">
          <mxGeometry x="-99" y="257" width="120" height="60" as="geometry" />
        </mxCell>
        <mxCell id="KTIaO_VYiiC3L9U0whu2-15" value="marker1" style="edgeStyle=orthogonalEdgeStyle;rounded=0;orthogonalLoop=1;jettySize=auto;html=1;exitX=1;exitY=0.25;exitDx=0;exitDy=0;fontSize=12;startSize=8;endSize=8;entryX=0;entryY=0.5;entryDx=0;entryDy=0;" parent="1" source="KTIaO_VYiiC3L9U0whu2-5" target="KTIaO_VYiiC3L9U0whu2-7" edge="1">
          <mxGeometry x="-0.7811" y="15" relative="1" as="geometry">
            <mxPoint x="284" y="271.46153846153857" as="targetPoint" />
            <mxPoint as="offset" />
            <Array as="points">
              <mxPoint x="474" y="270" />
              <mxPoint x="474" y="129" />
              <mxPoint x="558" y="129" />
            </Array>
          </mxGeometry>
        </mxCell>
        <mxCell id="KTIaO_VYiiC3L9U0whu2-17" value="marker2" style="edgeStyle=orthogonalEdgeStyle;rounded=0;orthogonalLoop=1;jettySize=auto;html=1;exitX=1;exitY=0.5;exitDx=0;exitDy=0;fontSize=12;startSize=8;endSize=8;entryX=0;entryY=0.75;entryDx=0;entryDy=0;" parent="1" source="KTIaO_VYiiC3L9U0whu2-5" target="KTIaO_VYiiC3L9U0whu2-7" edge="1">
          <mxGeometry x="-0.8" y="8" relative="1" as="geometry">
            <mxPoint x="284" y="302" as="targetPoint" />
            <Array as="points">
              <mxPoint x="500" y="287" />
              <mxPoint x="500" y="143" />
            </Array>
            <mxPoint as="offset" />
          </mxGeometry>
        </mxCell>
        <mxCell id="S5h6ffO6utj9VZuWHnrP-21" style="edgeStyle=none;curved=1;rounded=0;orthogonalLoop=1;jettySize=auto;html=1;exitX=1;exitY=0.75;exitDx=0;exitDy=0;fontSize=12;startSize=8;endSize=8;" parent="1" source="KTIaO_VYiiC3L9U0whu2-5" target="S5h6ffO6utj9VZuWHnrP-20" edge="1">
          <mxGeometry relative="1" as="geometry" />
        </mxCell>
        <mxCell id="KTIaO_VYiiC3L9U0whu2-5" value="watershed&lt;br&gt;：依人數劃分界線" style="rounded=1;whiteSpace=wrap;html=1;fontSize=12;" parent="1" vertex="1">
          <mxGeometry x="102" y="252" width="138" height="70" as="geometry" />
        </mxCell>
        <mxCell id="KTIaO_VYiiC3L9U0whu2-42" value="球預測路徑" style="edgeStyle=none;curved=1;rounded=0;orthogonalLoop=1;jettySize=auto;html=1;exitX=1;exitY=0.5;exitDx=0;exitDy=0;fontSize=13;startSize=8;endSize=8;" parent="1" source="KTIaO_VYiiC3L9U0whu2-6" edge="1">
          <mxGeometry x="1" y="29" relative="1" as="geometry">
            <mxPoint x="552" y="7" as="targetPoint" />
            <mxPoint x="29" y="29" as="offset" />
          </mxGeometry>
        </mxCell>
        <mxCell id="KTIaO_VYiiC3L9U0whu2-6" value="卡爾曼濾波&lt;br&gt;：預測球體路徑" style="rounded=1;whiteSpace=wrap;html=1;fontSize=12;" parent="1" vertex="1">
          <mxGeometry x="339" y="-23" width="146" height="60" as="geometry" />
        </mxCell>
        <mxCell id="KTIaO_VYiiC3L9U0whu2-44" value="得分" style="edgeStyle=none;curved=1;rounded=0;orthogonalLoop=1;jettySize=auto;html=1;exitX=1;exitY=0.5;exitDx=0;exitDy=0;fontSize=13;startSize=8;endSize=8;" parent="1" source="KTIaO_VYiiC3L9U0whu2-7" edge="1">
          <mxGeometry x="1" y="20" relative="1" as="geometry">
            <mxPoint x="710" y="128.5" as="targetPoint" />
            <mxPoint x="20" y="20" as="offset" />
          </mxGeometry>
        </mxCell>
        <mxCell id="KTIaO_VYiiC3L9U0whu2-7" value="計分" style="rounded=1;whiteSpace=wrap;html=1;fontSize=12;" parent="1" vertex="1">
          <mxGeometry x="558" y="98" width="120" height="60" as="geometry" />
        </mxCell>
        <mxCell id="KTIaO_VYiiC3L9U0whu2-12" value="ballx, bally" style="edgeStyle=none;curved=1;rounded=0;orthogonalLoop=1;jettySize=auto;html=1;exitX=1;exitY=0.5;exitDx=0;exitDy=0;entryX=0;entryY=0.25;entryDx=0;entryDy=0;fontSize=12;startSize=8;endSize=8;" parent="1" source="KTIaO_VYiiC3L9U0whu2-8" target="KTIaO_VYiiC3L9U0whu2-7" edge="1">
          <mxGeometry x="-0.2887" y="14" relative="1" as="geometry">
            <mxPoint as="offset" />
          </mxGeometry>
        </mxCell>
        <mxCell id="KTIaO_VYiiC3L9U0whu2-8" value="球落點&lt;br&gt;：紀錄bounce藍點標示、球速" style="rounded=1;whiteSpace=wrap;html=1;fontSize=12;" parent="1" vertex="1">
          <mxGeometry x="231" y="78.5" width="217" height="71" as="geometry" />
        </mxCell>
        <mxCell id="KTIaO_VYiiC3L9U0whu2-26" value="" style="edgeStyle=elbowEdgeStyle;elbow=horizontal;endArrow=classic;html=1;curved=0;rounded=0;endSize=8;startSize=8;fontSize=32;exitX=1;exitY=0.517;exitDx=0;exitDy=0;exitPerimeter=0;entryX=0;entryY=0.5;entryDx=0;entryDy=0;" parent="1" source="KTIaO_VYiiC3L9U0whu2-3" target="0AO9SnE5BT7vbNXzvpkB-11" edge="1">
          <mxGeometry x="-0.6667" y="12" width="50" height="50" relative="1" as="geometry">
            <mxPoint x="37" y="84" as="sourcePoint" />
            <mxPoint x="87" y="34" as="targetPoint" />
            <mxPoint as="offset" />
          </mxGeometry>
        </mxCell>
        <mxCell id="KTIaO_VYiiC3L9U0whu2-35" value="tennis_court.mp4" style="endArrow=classic;html=1;rounded=0;fontSize=12;startSize=8;endSize=8;curved=1;entryX=0;entryY=0.25;entryDx=0;entryDy=0;" parent="1" source="S5h6ffO6utj9VZuWHnrP-6" target="KTIaO_VYiiC3L9U0whu2-3" edge="1">
          <mxGeometry x="-1" y="101" width="50" height="50" relative="1" as="geometry">
            <mxPoint x="-252" y="83" as="sourcePoint" />
            <mxPoint x="-113" y="77" as="targetPoint" />
            <mxPoint x="-101" y="100" as="offset" />
          </mxGeometry>
        </mxCell>
        <mxCell id="KTIaO_VYiiC3L9U0whu2-36" value="" style="edgeStyle=elbowEdgeStyle;elbow=horizontal;endArrow=classic;html=1;curved=0;rounded=0;endSize=8;startSize=8;fontSize=12;entryX=0;entryY=0.5;entryDx=0;entryDy=0;" parent="1" target="KTIaO_VYiiC3L9U0whu2-1" edge="1">
          <mxGeometry width="50" height="50" relative="1" as="geometry">
            <mxPoint x="-219" y="83" as="sourcePoint" />
            <mxPoint x="-169" y="33" as="targetPoint" />
            <Array as="points">
              <mxPoint x="-252" y="8" />
              <mxPoint x="-219" y="6" />
            </Array>
          </mxGeometry>
        </mxCell>
        <mxCell id="KTIaO_VYiiC3L9U0whu2-45" value="" style="edgeStyle=segmentEdgeStyle;endArrow=classic;html=1;curved=0;rounded=0;endSize=8;startSize=8;fontSize=12;entryX=0;entryY=0.5;entryDx=0;entryDy=0;" parent="1" target="KTIaO_VYiiC3L9U0whu2-4" edge="1">
          <mxGeometry width="50" height="50" relative="1" as="geometry">
            <mxPoint x="-195" y="83" as="sourcePoint" />
            <mxPoint x="40" y="102" as="targetPoint" />
            <Array as="points">
              <mxPoint x="-251" y="83" />
              <mxPoint x="-251" y="287" />
            </Array>
          </mxGeometry>
        </mxCell>
        <mxCell id="S5h6ffO6utj9VZuWHnrP-6" value="" style="shape=waypoint;sketch=0;size=6;pointerEvents=1;points=[];fillColor=none;resizable=0;rotatable=0;perimeter=centerPerimeter;snapToPoint=1;fontSize=16;" parent="1" vertex="1">
          <mxGeometry x="-261" y="73" width="20" height="20" as="geometry" />
        </mxCell>
        <mxCell id="S5h6ffO6utj9VZuWHnrP-8" value="" style="endArrow=none;html=1;rounded=0;fontSize=12;startSize=8;endSize=8;curved=1;entryX=0.586;entryY=0;entryDx=0;entryDy=0;entryPerimeter=0;" parent="1" target="S5h6ffO6utj9VZuWHnrP-6" edge="1">
          <mxGeometry width="50" height="50" relative="1" as="geometry">
            <mxPoint x="-304" y="83" as="sourcePoint" />
            <mxPoint x="-223" y="83" as="targetPoint" />
          </mxGeometry>
        </mxCell>
        <mxCell id="S5h6ffO6utj9VZuWHnrP-9" value="" style="shape=waypoint;sketch=0;size=6;pointerEvents=1;points=[];fillColor=none;resizable=0;rotatable=0;perimeter=centerPerimeter;snapToPoint=1;fontSize=16;" parent="1" vertex="1">
          <mxGeometry x="275" y="-75" width="20" height="20" as="geometry" />
        </mxCell>
        <mxCell id="S5h6ffO6utj9VZuWHnrP-16" value="" style="edgeStyle=orthogonalEdgeStyle;rounded=0;orthogonalLoop=1;jettySize=auto;html=1;exitDx=0;exitDy=0;entryDx=0;entryDy=0;fontSize=12;startSize=8;endSize=8;elbow=vertical;entryX=0;entryY=0.5;" parent="1" source="S5h6ffO6utj9VZuWHnrP-9" target="KTIaO_VYiiC3L9U0whu2-6" edge="1">
          <mxGeometry relative="1" as="geometry">
            <mxPoint x="275" y="-65" as="sourcePoint" />
            <mxPoint x="128" y="18" as="targetPoint" />
            <Array as="points">
              <mxPoint x="285" y="7" />
            </Array>
          </mxGeometry>
        </mxCell>
        <mxCell id="S5h6ffO6utj9VZuWHnrP-15" value="" style="shape=waypoint;sketch=0;size=6;pointerEvents=1;points=[];fillColor=none;resizable=0;rotatable=0;perimeter=centerPerimeter;snapToPoint=1;fontSize=16;" parent="1" vertex="1">
          <mxGeometry x="352" y="-132" width="20" height="20" as="geometry" />
        </mxCell>
        <mxCell id="S5h6ffO6utj9VZuWHnrP-18" value="(numpy.array)" style="text;html=1;align=center;verticalAlign=middle;resizable=0;points=[];autosize=1;strokeColor=none;fillColor=none;fontSize=14;" parent="1" vertex="1">
          <mxGeometry x="448" y="65" width="104" height="29" as="geometry" />
        </mxCell>
        <mxCell id="S5h6ffO6utj9VZuWHnrP-19" value="(numpy.array)" style="text;html=1;align=center;verticalAlign=middle;resizable=0;points=[];autosize=1;strokeColor=none;fillColor=none;fontSize=14;" parent="1" vertex="1">
          <mxGeometry x="181" y="219" width="104" height="29" as="geometry" />
        </mxCell>
        <mxCell id="S5h6ffO6utj9VZuWHnrP-23" value="src_points&lt;span style=&quot;font-size:18.0pt;font-family:Calibri;mso-ascii-font-family:Calibri;&lt;br/&gt;mso-fareast-font-family:新細明體;mso-bidi-font-family:+mn-cs;mso-ascii-theme-font:&lt;br/&gt;minor-latin;mso-fareast-theme-font:minor-fareast;mso-bidi-theme-font:minor-bidi;&lt;br/&gt;color:black;mso-color-index:13;mso-font-kerning:12.0pt;language:zh-TW;&lt;br/&gt;mso-style-textfill-type:solid;mso-style-textfill-fill-themecolor:dark1;&lt;br/&gt;mso-style-textfill-fill-color:black;mso-style-textfill-fill-alpha:100.0%&quot;&gt;&lt;/span&gt;" style="edgeStyle=orthogonalEdgeStyle;rounded=0;orthogonalLoop=1;jettySize=auto;html=1;exitX=1;exitY=0.5;exitDx=0;exitDy=0;entryX=0;entryY=0.75;entryDx=0;entryDy=0;fontSize=12;startSize=8;endSize=8;" parent="1" source="S5h6ffO6utj9VZuWHnrP-20" target="KTIaO_VYiiC3L9U0whu2-3" edge="1">
          <mxGeometry x="0.9485" y="43" relative="1" as="geometry">
            <Array as="points">
              <mxPoint x="559" y="303" />
              <mxPoint x="728" y="302" />
              <mxPoint x="728" y="376" />
              <mxPoint x="-169" y="376" />
              <mxPoint x="-169" y="112" />
            </Array>
            <mxPoint as="offset" />
          </mxGeometry>
        </mxCell>
        <mxCell id="S5h6ffO6utj9VZuWHnrP-20" value="Harris&lt;br&gt;：追蹤、鎖定4個角點" style="rounded=1;whiteSpace=wrap;html=1;fontSize=12;" parent="1" vertex="1">
          <mxGeometry x="531" y="268" width="160" height="70" as="geometry" />
        </mxCell>
        <mxCell id="0AO9SnE5BT7vbNXzvpkB-6" value="src_points&lt;span style=&quot;font-size:18.0pt;font-family:Calibri;mso-ascii-font-family:Calibri;&lt;br/&gt;mso-fareast-font-family:新細明體;mso-bidi-font-family:+mn-cs;mso-ascii-theme-font:&lt;br/&gt;minor-latin;mso-fareast-theme-font:minor-fareast;mso-bidi-theme-font:minor-bidi;&lt;br/&gt;color:black;mso-color-index:13;mso-font-kerning:12.0pt;language:zh-TW;&lt;br/&gt;mso-style-textfill-type:solid;mso-style-textfill-fill-themecolor:dark1;&lt;br/&gt;mso-style-textfill-fill-color:black;mso-style-textfill-fill-alpha:100.0%&quot;&gt;&lt;/span&gt;" style="text;html=1;align=center;verticalAlign=middle;resizable=0;points=[];autosize=1;strokeColor=none;fillColor=none;" vertex="1" parent="1">
          <mxGeometry x="697" y="257" width="73" height="41" as="geometry" />
        </mxCell>
        <mxCell id="0AO9SnE5BT7vbNXzvpkB-9" value="transformed_frame" style="text;html=1;align=center;verticalAlign=middle;resizable=0;points=[];autosize=1;strokeColor=none;fillColor=none;" vertex="1" parent="1">
          <mxGeometry x="-44" y="37" width="119" height="26" as="geometry" />
        </mxCell>
        <mxCell id="0AO9SnE5BT7vbNXzvpkB-13" style="edgeStyle=orthogonalEdgeStyle;rounded=0;orthogonalLoop=1;jettySize=auto;html=1;entryX=0;entryY=0.5;entryDx=0;entryDy=0;" edge="1" parent="1" source="0AO9SnE5BT7vbNXzvpkB-11" target="KTIaO_VYiiC3L9U0whu2-8">
          <mxGeometry relative="1" as="geometry" />
        </mxCell>
        <mxCell id="0AO9SnE5BT7vbNXzvpkB-11" value="檢測球座標&lt;br&gt;：紀錄球體像素座標" style="rounded=1;whiteSpace=wrap;html=1;fontSize=12;" vertex="1" parent="1">
          <mxGeometry x="50" y="67.5" width="149" height="60" as="geometry" />
        </mxCell>
        <mxCell id="0AO9SnE5BT7vbNXzvpkB-15" value="球已知路徑" style="text;html=1;align=center;verticalAlign=middle;resizable=0;points=[];autosize=1;strokeColor=none;fillColor=none;" vertex="1" parent="1">
          <mxGeometry x="180" y="47" width="78" height="26" as="geometry" />
        </mxCell>
      </root>
    </mxGraphModel>
  </diagram>
</mxfile>
